<svg xmlns="http://www.w3.org/2000/svg" height="448pt" viewBox="-20 0 447 448" width="448pt">
<path d="m392.5 256v-8h-328v72c.039062 30.910156 25.089844 55.960938 56 56h152c66.242188-.074219 119.925781-53.757812 120-120zm0 0" style="fill: rgb(0, 109, 240);"></path>
<path d="m160.5 32h-144v192c0 4.417969 3.582031 8 8 8h136zm0 0" style="fill: rgb(0, 109, 240);"></path>
<path d="m136.5 392h128v56h-128zm0 0" style="fill: rgb(0, 109, 240);"></path>
<path d="m8.5 16h160c4.417969 0 8-3.582031 8-8s-3.582031-8-8-8h-160c-4.417969 0-8 3.582031-8 8s3.582031 8 8 8zm0 0" style="fill: rgb(0, 109, 240);"></path>
<path d="m407.132812 232c-3.402343-9.582031-12.464843-15.988281-22.632812-16h-208v16zm0 0" style="fill: rgb(0, 109, 240);">
</path>
</svg>